<?xml version="1.0" encoding="utf-8"?>
<!-- Generator: Adobe Illustrator 27.1.1, SVG Export Plug-In . SVG Version: 6.00 Build 0)  -->
<svg version="1.1" id="レイヤー_2" xmlns="http://www.w3.org/2000/svg" xmlns:xlink="http://www.w3.org/1999/xlink" x="0px"
	 y="0px" viewBox="0 0 24 15" style="enable-background:new 0 0 24 15;" xml:space="preserve">
<style type="text/css">
	.st0{fill:#0072EF;}
</style>
<polygon class="st0" points="23,2 23,1 22,1 22,0 20,0 20,1 19,1 19,2 18,2 18,3 17,3 17,4 16,4 16,5 15,5 15,6 14,6 14,7 13,7 
	13,8 11,8 11,7 10,7 10,6 9,6 9,5 8,5 8,4 7,4 7,3 6,3 6,2 5,2 5,1 4,1 4,0 2,0 2,1 1,1 1,2 0,2 0,4 1,4 1,5 2,5 2,6 3,6 3,7 4,7 
	4,8 5,8 5,9 6,9 6,10 7,10 7,11 8,11 8,12 9,12 9,13 10,13 10,14 11,14 11,15 13,15 13,14 14,14 14,13 15,13 15,12 16,12 16,11 
	17,11 17,10 18,10 18,9 19,9 19,8 20,8 20,7 21,7 21,6 22,6 22,5 23,5 23,4 24,4 24,2 "/>
</svg>
