<?xml version="1.0" encoding="utf-8"?>
<!-- Generator: Adobe Illustrator 27.1.1, SVG Export Plug-In . SVG Version: 6.00 Build 0)  -->
<svg version="1.1" id="レイヤー_2_00000145023914176230495930000012169012725919953792_"
	 xmlns="http://www.w3.org/2000/svg" xmlns:xlink="http://www.w3.org/1999/xlink" x="0px" y="0px" viewBox="0 0 15 24"
	 style="enable-background:new 0 0 15 24;" xml:space="preserve">
<style type="text/css">
	.st0{fill:#0072EF;}
</style>
<polygon class="st0" points="2,1 1,1 1,2 0,2 0,4 1,4 1,5 2,5 2,6 3,6 3,7 4,7 4,8 5,8 5,9 6,9 6,10 7,10 7,11 8,11 8,13 7,13 7,14 
	6,14 6,15 5,15 5,16 4,16 4,17 3,17 3,18 2,18 2,19 1,19 1,20 0,20 0,22 1,22 1,23 2,23 2,24 4,24 4,23 5,23 5,22 6,22 6,21 7,21 
	7,20 8,20 8,19 9,19 9,18 10,18 10,17 11,17 11,16 12,16 12,15 13,15 13,14 14,14 14,13 15,13 15,11 14,11 14,10 13,10 13,9 12,9 
	12,8 11,8 11,7 10,7 10,6 9,6 9,5 8,5 8,4 7,4 7,3 6,3 6,2 5,2 5,1 4,1 4,0 2,0 "/>
</svg>
