<?xml version="1.0" encoding="utf-8"?>
<!-- Generator: Adobe Illustrator 27.1.1, SVG Export Plug-In . SVG Version: 6.00 Build 0)  -->
<svg version="1.1" id="レイヤー_1" xmlns="http://www.w3.org/2000/svg" xmlns:xlink="http://www.w3.org/1999/xlink" x="0px"
	 y="0px" viewBox="0 0 21.6 1.6" style="enable-background:new 0 0 21.6 1.6;" xml:space="preserve">
<g>
	<path d="M1.6,0.8c0,0.4-0.4,0.8-0.8,0.8C0.3,1.6,0,1.2,0,0.8C0,0.4,0.3,0,0.8,0C1.2,0,1.6,0.4,1.6,0.8z M5.6,0.8
		c0,0.4-0.4,0.8-0.8,0.8C4.3,1.6,4,1.2,4,0.8C4,0.4,4.3,0,4.8,0C5.2,0,5.6,0.4,5.6,0.8z M9.6,0.8c0,0.4-0.4,0.8-0.8,0.8
		C8.3,1.6,8,1.2,8,0.8C8,0.4,8.3,0,8.8,0C9.2,0,9.6,0.4,9.6,0.8z"/>
	<path d="M13.6,0.8c0,0.4-0.4,0.8-0.8,0.8c-0.4,0-0.8-0.3-0.8-0.8C12,0.4,12.3,0,12.8,0C13.2,0,13.6,0.4,13.6,0.8z M17.6,0.8
		c0,0.4-0.4,0.8-0.8,0.8c-0.4,0-0.8-0.3-0.8-0.8C16,0.4,16.3,0,16.8,0C17.2,0,17.6,0.4,17.6,0.8z M21.6,0.8c0,0.4-0.4,0.8-0.8,0.8
		c-0.4,0-0.8-0.3-0.8-0.8C20,0.4,20.3,0,20.8,0C21.2,0,21.6,0.4,21.6,0.8z"/>
</g>
</svg>
