<svg 
 xmlns="http://www.w3.org/2000/svg"
 xmlns:xlink="http://www.w3.org/1999/xlink"
 width="71px" height="69px">
<path fill-rule="evenodd"  fill="rgb(255, 255, 255)"
 d="M70.527,18.788 L63.911,38.812 C62.572,41.262 61.071,41.689 59.651,41.689 L24.144,41.689 C24.144,41.689 22.724,43.126 21.304,44.563 C20.300,45.579 21.304,47.436 24.144,47.436 L59.651,47.436 C59.651,47.436 62.491,47.436 62.491,50.311 C62.491,53.188 59.698,53.187 59.698,53.187 L23.200,53.187 C18.914,53.187 14.224,49.911 14.224,46.280 C14.224,45.123 14.001,45.108 14.632,44.002 L18.463,38.812 L9.942,8.623 L4.261,8.623 C4.261,8.623 0.000,8.623 0.000,4.313 C0.000,0.000 4.261,0.000 4.261,0.000 L15.759,0.000 L19.884,12.937 L67.060,12.935 C69.227,12.935 70.1000,14.715 70.1000,16.889 C70.1000,17.561 70.842,18.236 70.527,18.788 ZM21.993,56.105 C25.532,56.105 28.364,58.994 28.364,62.552 C28.364,66.110 25.532,69.001 21.993,69.001 C18.455,69.001 15.623,66.110 15.623,62.552 C15.623,58.994 18.455,56.105 21.993,56.105 ZM55.412,56.105 C58.973,56.105 61.782,58.994 61.782,62.552 C61.782,66.110 58.973,69.001 55.412,69.001 C51.851,69.001 49.041,66.110 49.041,62.552 C49.041,58.994 51.851,56.105 55.412,56.105 Z"/>
</svg>