<svg 
 xmlns="http://www.w3.org/2000/svg"
 xmlns:xlink="http://www.w3.org/1999/xlink"
 width="30px" height="30px">
<path fill-rule="evenodd"  fill="rgb(0, 114, 239)"
 d="M15.000,-0.001 C6.720,-0.001 -0.000,6.721 -0.000,15.001 C-0.000,23.280 6.720,30.002 15.000,30.002 C23.280,30.002 30.000,23.280 30.000,15.001 C30.000,6.721 23.280,-0.001 15.000,-0.001 ZM16.500,24.000 L13.500,24.000 L13.500,20.999 L16.500,20.999 L16.500,24.000 ZM16.500,19.501 L13.500,19.501 C13.500,14.625 17.1000,15.001 17.1000,12.000 C17.1000,10.349 16.650,8.999 15.000,8.999 C13.350,8.999 12.000,10.349 12.000,12.000 L9.000,12.000 C9.000,8.685 11.685,5.1000 15.000,5.1000 C18.315,5.1000 20.1000,8.685 20.1000,12.000 C20.1000,15.750 16.500,16.125 16.500,19.501 Z"/>
</svg>