<svg 
 xmlns="http://www.w3.org/2000/svg"
 xmlns:xlink="http://www.w3.org/1999/xlink"
 width="36px" height="40px">
<path fill-rule="evenodd"  fill="rgb(255, 255, 255)"
 d="M31.758,35.815 C32.371,36.612 32.720,36.925 32.720,37.634 C32.597,38.997 31.446,40.027 30.095,39.984 C29.263,39.984 28.914,39.585 28.126,38.606 L25.325,35.147 C22.994,36.126 20.494,36.626 17.972,36.612 C8.273,36.827 0.238,29.032 0.025,19.202 C0.019,18.896 0.020,18.590 0.029,18.291 C-0.230,8.459 7.422,0.277 17.121,0.015 C17.419,0.007 17.718,0.007 18.016,0.015 C27.715,-0.227 35.768,7.551 36.004,17.381 C36.011,17.684 36.011,17.989 36.003,18.291 C36.139,23.922 33.661,29.293 29.307,32.796 L31.758,35.815 ZM18.453,26.629 C17.797,25.788 17.535,25.389 17.535,24.857 C17.648,23.521 18.752,22.502 20.073,22.505 C20.904,22.505 21.254,22.908 21.955,23.749 L26.068,28.803 C29.051,26.151 30.745,22.312 30.707,18.291 C30.991,11.184 25.539,5.193 18.530,4.906 C11.520,4.619 5.608,10.143 5.324,17.250 C5.310,17.596 5.310,17.944 5.324,18.291 C5.013,25.390 10.441,31.403 17.447,31.720 C19.005,31.790 20.563,31.570 22.042,31.066 L18.453,26.629 Z"/>
</svg>