<svg 
 xmlns="http://www.w3.org/2000/svg"
 xmlns:xlink="http://www.w3.org/1999/xlink"
 width="31px" height="36px">
<path fill-rule="evenodd"  fill="rgb(255, 255, 255)"
 d="M5.509,33.486 C4.917,35.136 4.612,36.009 3.016,36.009 C1.814,36.009 0.002,35.443 0.002,33.829 C0.061,33.106 0.250,32.399 0.558,31.744 L11.195,3.646 C11.805,2.035 12.577,0.019 15.465,0.019 C18.352,0.019 19.160,1.832 19.805,3.646 L30.442,31.744 C30.739,32.403 30.927,33.107 30.998,33.829 C30.998,35.391 29.205,36.009 28.021,36.009 C26.353,36.009 26.012,35.045 25.438,33.486 L22.909,26.335 L8.092,26.335 L5.509,33.486 ZM21.276,21.849 L15.500,5.864 L9.725,21.849 L21.276,21.849 Z"/>
</svg>