<svg 
 xmlns="http://www.w3.org/2000/svg"
 xmlns:xlink="http://www.w3.org/1999/xlink"
 width="46px" height="31px">
<path fill-rule="evenodd"  fill="rgb(255, 255, 255)"
 d="M41.813,-0.010 C39.901,-0.010 11.706,-0.010 11.706,-0.010 L11.706,5.856 L3.343,5.856 L-0.003,15.077 L-0.003,25.135 L5.015,25.135 C5.015,25.135 5.015,31.003 10.869,31.003 C16.724,31.003 16.724,25.135 16.724,25.135 L29.268,25.135 C29.268,25.135 29.268,31.003 35.122,31.003 C40.977,31.003 40.977,25.135 40.977,25.135 L45.994,25.135 L45.994,4.180 C45.994,4.180 45.994,-0.010 41.813,-0.010 ZM3.343,15.077 L5.852,8.370 L11.706,8.370 L11.706,15.077 L3.343,15.077 ZM10.867,28.496 C9.479,28.496 8.354,27.368 8.354,25.974 C8.354,24.581 9.479,23.452 10.867,23.452 C12.254,23.452 13.379,24.581 13.379,25.974 C13.379,27.368 12.254,28.496 10.867,28.496 ZM35.124,28.484 C33.734,28.484 32.608,27.359 32.608,25.970 C32.608,24.581 33.734,23.456 35.124,23.456 C36.513,23.456 37.640,24.581 37.640,25.970 C37.640,27.359 36.513,28.484 35.124,28.484 Z"/>
</svg>