<?xml version="1.0" encoding="utf-8"?>
<!-- Generator: Adobe Illustrator 28.0.0, SVG Export Plug-In . SVG Version: 6.00 Build 0)  -->
<svg version="1.1" id="圖層_1" xmlns="http://www.w3.org/2000/svg" xmlns:xlink="http://www.w3.org/1999/xlink" x="0px" y="0px"
	 viewBox="0 0 236.49 106.02" style="enable-background:new 0 0 236.49 106.02;" xml:space="preserve">
<style type="text/css">
	.st0{fill:url(#SVGID_1_);}
	.st1{fill:url(#SVGID_00000005252812310774348090000009635690825065186709_);}
</style>
<linearGradient id="SVGID_1_" gradientUnits="userSpaceOnUse" x1="208.8495" y1="40.4737" x2="235.7511" y2="40.4737">
	<stop  offset="0" style="stop-color:#F0AC70;stop-opacity:0.4"/>
	<stop  offset="1" style="stop-color:#8E643F;stop-opacity:0.3"/>
</linearGradient>
<path class="st0" d="M209,50.91c-0.13-0.16-0.18-0.38-0.12-0.58c0.53-1.91,2.16-4.73,4.17-7.35c2.02-2.6,4.33-4.95,6.48-5.76
	c2.12-0.77,3.5-0.67,5.5-1.33c2.02-0.66,4.8-2.08,9.72-5.95c0.22-0.17,0.52-0.18,0.75-0.02c0.23,0.16,0.32,0.45,0.24,0.71
	c-1.28,4.07-2.6,7.94-4.3,11.2c-1.7,3.26-3.78,5.93-6.61,7.53c-2.29,1.3-4.35,1.57-6.67,1.59c-2.32,0.03-4.94-0.16-8.61,0.19
	C209.33,51.15,209.13,51.07,209,50.91z M230.31,41.24c0.69-1.33,1.32-2.79,1.91-4.32c-2.09,3.29-4.86,7.01-7.88,8.76
	c-3.04,1.74-5.93,2.59-8.43,3.26c-0.97,0.26-1.87,0.49-2.71,0.74c1.9-0.03,3.52,0.02,4.92,0.01c2.25-0.03,3.99-0.26,6.07-1.43
	C226.73,46.82,228.68,44.38,230.31,41.24z M214.03,43.77c-1.43,1.85-2.67,3.87-3.39,5.44c1.47-0.61,3.14-1.01,4.96-1.5
	c2.48-0.66,5.24-1.48,8.13-3.14c2.31-1.32,4.73-4.25,6.65-7.12c1.18-1.75,2.17-3.48,2.9-4.81c-3.65,2.68-6.02,3.87-7.88,4.47
	c-2.23,0.72-3.6,0.62-5.45,1.32C218.27,39.02,215.95,41.26,214.03,43.77z"/>
<linearGradient id="SVGID_00000097466328925046561270000012239173523403375275_" gradientUnits="userSpaceOnUse" x1="56.6613" y1="105.5196" x2="114.6256" y2="5.1224">
	<stop  offset="1.246007e-07" style="stop-color:#8E643F;stop-opacity:0.5"/>
	<stop  offset="1" style="stop-color:#F0AC70;stop-opacity:0.4"/>
</linearGradient>
<path style="fill:url(#SVGID_00000097466328925046561270000012239173523403375275_);" d="M120.67,98.97
	c14.2-5.07,25.55-15.55,36.94-24.88c3.85-3.07,7.76-6.06,11.95-8.59c4.05-2.39,8.31-4.4,12.71-6.09c5.11-2.46,10.46-4.46,16.02-5.98
	c-10.54,2.14-20.65,5.83-29.52,10.76c-12.78,7.6-23.06,18.89-35.57,26.69c-8.35,5.12-17.68,8.51-27.26,10.5
	c-37,7.66-85.15-4.4-99.65-42.86C-0.5,39.67,3.24,19.26,6.25,0.03L6.05,0C4.31,9.73,2.58,19.5,1.97,29.4
	c-0.65,9.91-0.08,20.04,3.32,29.45C21.73,102.99,80.37,113.79,120.67,98.97z"/>
</svg>
