<?xml version="1.0" encoding="utf-8"?>
<!-- Generator: Adobe Illustrator 28.0.0, SVG Export Plug-In . SVG Version: 6.00 Build 0)  -->
<svg version="1.1" id="圖層_1" xmlns="http://www.w3.org/2000/svg" xmlns:xlink="http://www.w3.org/1999/xlink" x="0px" y="0px"
	 viewBox="0 0 236.49 61.76" style="enable-background:new 0 0 236.49 61.76;" xml:space="preserve">
<style type="text/css">
	.st0{fill:url(#SVGID_1_);}
	.st1{fill:url(#SVGID_00000018205476704828675480000014265663249789338772_);}
	.st2{fill:url(#SVGID_00000057143172815962516250000004160589787162016649_);}
</style>
<linearGradient id="SVGID_1_" gradientUnits="userSpaceOnUse" x1="4.1274" y1="31.9613" x2="23.559" y2="31.9613">
	<stop  offset="0" style="stop-color:#F0AC70;stop-opacity:0.6"/>
	<stop  offset="1" style="stop-color:#8E643F;stop-opacity:0.6"/>
</linearGradient>
<path class="st0" d="M23.54,40.58c-0.7-2.8-0.87-4.85-1.16-6.65c-0.29-1.79-0.74-3.36-2.01-4.98c-1.56-2-3.86-3.3-6.56-4.23
	c-2.7-0.93-5.83-1.49-9.11-1.99C4.48,22.7,4.27,22.81,4.18,23c-0.09,0.19-0.05,0.43,0.11,0.58c3.55,3.35,4.98,5.34,5.72,6.83
	c0.74,1.47,0.83,2.56,1.67,4.11c0.88,1.56,2.96,3.08,5.19,4.33c2.24,1.24,4.6,2.17,6.14,2.35c0.16,0.02,0.32-0.04,0.43-0.16
	C23.54,40.91,23.58,40.74,23.54,40.58z M19.59,29.56c1.14,1.47,1.53,2.8,1.82,4.54c0.18,1.08,0.33,2.34,0.58,3.82
	c-0.29-0.62-0.58-1.29-0.89-2.01c-0.81-1.86-1.8-4-3.5-6.15c-1.7-2.13-4.88-3.83-7.66-5.06c1.25,0.28,2.45,0.59,3.55,0.97
	C16.09,26.55,18.2,27.77,19.59,29.56z M12.55,34.03c-0.76-1.36-0.84-2.43-1.66-4.07c-0.69-1.37-1.88-3.07-4.37-5.58
	c1.11,0.4,2.55,0.97,4.04,1.67c2.44,1.14,4.97,2.67,6.26,4.3c1.62,2.04,2.57,4.08,3.37,5.93c0.59,1.36,1.09,2.61,1.74,3.67
	c-1.29-0.37-2.99-1.09-4.58-1.98C15.2,36.79,13.2,35.26,12.55,34.03z"/>
<linearGradient id="SVGID_00000180343387596875738380000018407822477442593175_" gradientUnits="userSpaceOnUse" x1="21.3199" y1="-89.3573" x2="225.8521" y2="-89.3573">
	<stop  offset="1.246007e-07" style="stop-color:#8E643F;stop-opacity:0.5"/>
	<stop  offset="1" style="stop-color:#F0AC70;stop-opacity:0.4"/>
</linearGradient>
<path style="fill:url(#SVGID_00000180343387596875738380000018407822477442593175_);" d="M225.21-93.94
	c-0.34,2.34-1.27,4.75-2.9,7.18c-2.4,3.8-5.76,7.31-9.4,10.62c-7.3,6.49-16.78,12.67-29.01,14.28c-20.98,2.8-43.11-6.95-53.89-18.66
	c-8.4-10.45-8.19-18-23.37-26.54c-18.29-10.39-48.73-15.57-68.26-3.95c-9.3,5.67-13.15,14.07-17.07,21.84
	c4.31-7.42,8.1-16,17.5-21.51c19.33-11.26,49.21-6.05,67.12,4.19c4.64,2.65,8.72,5.77,11.76,9.33c4.51,5.38,6.77,11.6,11.49,16.97
	c11.09,11.82,33.57,21.48,54.8,18.62c12.31-1.67,21.9-7.85,29.32-14.36c3.69-3.33,7.09-6.84,9.54-10.67c1.66-2.46,2.63-4.9,3-7.28
	L225.21-93.94z"/>
<linearGradient id="SVGID_00000001627385449250737150000016151442741257317267_" gradientUnits="userSpaceOnUse" x1="30.2675" y1="27.1577" x2="228.3596" y2="27.1577">
	<stop  offset="1.246007e-07" style="stop-color:#8E643F;stop-opacity:0.5"/>
	<stop  offset="1" style="stop-color:#F0AC70;stop-opacity:0.4"/>
</linearGradient>
<path style="fill:url(#SVGID_00000001627385449250737150000016151442741257317267_);" d="M30.27,40.34c0,0,13.11-39.54,61.05-35.64
	c0,0,23.76-2.25,47.12,23.35c0,0,20.69,26.02,54.7,24.17c0,0,22.94,0,35.23-11.06c0,0-26.22,16.59-56.95,6.35
	c0,0-15.77-2.98-32.78-23c0,0-21.92-26.98-59.82-21.86C78.82,2.65,40.1,4.77,30.27,40.34z"/>
</svg>
