<?xml version="1.0" encoding="utf-8"?>
<!-- Generator: Adobe Illustrator 28.0.0, SVG Export Plug-In . SVG Version: 6.00 Build 0)  -->
<svg version="1.1" id="圖層_1" xmlns="http://www.w3.org/2000/svg" xmlns:xlink="http://www.w3.org/1999/xlink" x="0px" y="0px"
	 viewBox="0 0 290.9 61.5" style="enable-background:new 0 0 290.9 61.5;" xml:space="preserve">
<style type="text/css">
	.st0{fill:url(#SVGID_1_);}
	.st1{fill:url(#SVGID_00000068679713904532600750000001099925179289199796_);}
</style>
<linearGradient id="SVGID_1_" gradientUnits="userSpaceOnUse" x1="256.6823" y1="-26.9219" x2="283.5961" y2="-26.9219" gradientTransform="matrix(0.5609 0.8279 -0.8279 0.5609 100.9738 -182.2615)">
	<stop  offset="0" style="stop-color:#F0AC70;stop-opacity:0.4"/>
	<stop  offset="1" style="stop-color:#8E643F;stop-opacity:0.3"/>
</linearGradient>
<path class="st0" d="M258.7,21.1c0.1-0.2,0.2-0.4,0.4-0.4c1.9-0.6,5.1-0.9,8.4-0.7c3.3,0.2,6.5,0.8,8.4,2.1c1.8,1.3,2.5,2.5,4.2,3.8
	c1.7,1.3,4.4,2.8,10.4,4.7c0.3,0.1,0.4,0.3,0.4,0.6c0,0.3-0.2,0.5-0.5,0.6c-4.1,1.2-8,2.3-11.7,2.7c-3.7,0.4-7,0.2-9.9-1.2
	c-2.4-1.2-3.7-2.7-5.1-4.6c-1.3-1.9-2.6-4.2-5-7C258.7,21.5,258.6,21.3,258.7,21.1z M278.6,33.3c1.5-0.2,3.1-0.5,4.6-0.8
	c-3.9,0.1-8.5-0.1-11.7-1.6c-3.1-1.5-5.5-3.5-7.4-5.2c-0.8-0.7-1.5-1.3-2.1-1.8c1.1,1.6,2,2.9,2.8,4.1c1.3,1.8,2.5,3.2,4.6,4.2
	C272,33.5,275.1,33.7,278.6,33.3z M267.4,21.3c-2.3-0.1-4.7,0-6.4,0.2c1.3,0.9,2.6,2,4,3.3c1.9,1.7,4.2,3.5,7.2,5
	c2.4,1.2,6.2,1.5,9.6,1.5c2.1,0,4.1-0.2,5.6-0.3c-4.3-1.5-6.6-2.8-8.1-4c-1.8-1.4-2.5-2.6-4.1-3.8C273.7,22.1,270.6,21.5,267.4,21.3
	z"/>
<g>
	
		<linearGradient id="SVGID_00000133510802613644121070000005487566058999353759_" gradientUnits="userSpaceOnUse" x1="4.2263" y1="31.0626" x2="251.8669" y2="31.0626">
		<stop  offset="1.246007e-07" style="stop-color:#8E643F;stop-opacity:0.5"/>
		<stop  offset="1" style="stop-color:#F0AC70;stop-opacity:0.4"/>
	</linearGradient>
	<path style="fill:url(#SVGID_00000133510802613644121070000005487566058999353759_);" d="M236.1,41.8
		c-25.7,19.3-67.7,19.5-94.2,3.8c-12.3-7.5-21.4-19.8-33.6-27.8C96,9.6,81.6,4.9,66.9,3.8C44.6,2.6,19.7,8.5,4.2,25.4
		c5.3-5.1,11.8-9.1,19-11.5c13.3-6.5,29-8.8,43.6-8c19.2,1.4,37.8,9.1,51.8,22.4c15.9,15.4,27.2,24.8,50,28.6
		c30.9,5.4,68.7-4.2,83.3-31.7C248,31.9,242.6,37.6,236.1,41.8z"/>
</g>
</svg>
