<?xml version="1.0" encoding="utf-8"?>
<!-- Generator: Adobe Illustrator 28.0.0, SVG Export Plug-In . SVG Version: 6.00 Build 0)  -->
<svg version="1.1" id="圖層_1" xmlns="http://www.w3.org/2000/svg" xmlns:xlink="http://www.w3.org/1999/xlink" x="0px" y="0px"
	 viewBox="0 0 299.9 113.7" style="enable-background:new 0 0 299.9 113.7;" xml:space="preserve">
<style type="text/css">
	.st0{fill:url(#SVGID_1_);}
	.st1{fill:url(#SVGID_00000056423358655242431620000006776020382914355343_);}
</style>
<linearGradient id="SVGID_1_" gradientUnits="userSpaceOnUse" x1="538.8391" y1="38.9283" x2="557.4226" y2="38.9283" gradientTransform="matrix(-1 -5.556711e-03 5.556711e-03 -1 564.8569 122.8557)">
	<stop  offset="0" style="stop-color:#F0AC70;stop-opacity:0.4"/>
	<stop  offset="1" style="stop-color:#8E643F;stop-opacity:0.7"/>
</linearGradient>
<path class="st0" d="M26.2,73.7c0.1,0.1,0.1,0.3,0.1,0.4c-0.4,1.3-1.5,3.3-2.9,5.1c-1.4,1.8-3,3.4-4.5,4c-1.5,0.5-2.4,0.4-3.8,0.9
	c-1.4,0.4-3.3,1.4-6.7,4.1c-0.2,0.1-0.4,0.1-0.5,0c-0.2-0.1-0.2-0.3-0.2-0.5c0.9-2.8,1.8-5.5,3-7.7s2.6-4.1,4.6-5.2
	c1.6-0.9,3-1.1,4.6-1.1c1.6,0,3.4,0.1,5.9-0.1C26,73.6,26.1,73.6,26.2,73.7z M11.4,80.3c-0.5,0.9-0.9,1.9-1.3,3
	c1.5-2.3,3.4-4.8,5.5-6c2.1-1.2,4.1-1.8,5.8-2.2c0.7-0.2,1.3-0.3,1.9-0.5c-1.3,0-2.4,0-3.4,0c-1.6,0-2.8,0.2-4.2,1
	C13.9,76.5,12.6,78.2,11.4,80.3z M22.7,78.6c1-1.3,1.9-2.7,2.4-3.7c-1,0.4-2.2,0.7-3.4,1c-1.7,0.4-3.6,1-5.6,2.1
	c-1.6,0.9-3.3,2.9-4.6,4.9c-0.8,1.2-1.5,2.4-2,3.3c2.5-1.8,4.2-2.6,5.5-3.1c1.5-0.5,2.5-0.4,3.8-0.9C19.7,81.9,21.3,80.4,22.7,78.6z
	"/>
<g>
	
		<linearGradient id="SVGID_00000173846694092222953010000016226713947019780014_" gradientUnits="userSpaceOnUse" x1="46.8395" y1="55.8564" x2="295.3376" y2="55.8564">
		<stop  offset="1.246007e-07" style="stop-color:#8E643F;stop-opacity:0.5"/>
		<stop  offset="1" style="stop-color:#F0AC70;stop-opacity:0.4"/>
	</linearGradient>
	<path style="fill:url(#SVGID_00000173846694092222953010000016226713947019780014_);" d="M129.3,32c4.7-3.7,9.5-7.4,14.6-10.5
		c15.4-9.1,33.3-13.8,51.1-15.5c23.7-2.1,49.1,2.8,67.6,18.4c18.9,15.5,26.6,40.2,30.1,63.6c0.9,6.3,1.6,12.8,1.8,19.3l0.8-4.3
		c-0.4-5.1-0.9-10.1-1.7-15.2c-3.7-23.6-11.7-48.3-30.5-64.1C230.5-3.4,178.5,0.2,142.9,20c-15.6,9.3-28.1,23-43.3,32.5
		c-10.2,6.2-21.5,10.4-33.2,12.8c-0.5,0.1-0.9,0.2-1.4,0.3c-5.8,2-11.9,3.5-18.2,4.3c13.1-0.7,25.9-3.2,37.5-7.4
		C101.6,56.2,115.5,43.4,129.3,32z"/>
</g>
</svg>
